<svg width="119" height="25" viewBox="0 0 119 25" fill="none" xmlns="http://www.w3.org/2000/svg">
<path d="M0.893555 2.05273C1.51855 2.20898 2.11426 2.32617 2.68066 2.4043C3.24707 2.48242 3.74512 2.54102 4.1748 2.58008C4.68262 2.63867 5.15137 2.6582 5.58105 2.63867C6.12793 2.63867 6.81152 2.58984 7.63184 2.49219C8.47168 2.39453 9.33105 2.30664 10.21 2.22852C11.0889 2.13086 11.9287 2.07227 12.7295 2.05273C13.5498 2.01367 14.2139 2.0625 14.7217 2.19922C15.2295 2.31641 15.7471 2.50195 16.2744 2.75586C16.8213 2.99023 17.3193 3.29297 17.7686 3.66406C18.2178 4.01562 18.5889 4.43555 18.8818 4.92383C19.1748 5.39258 19.3408 5.92969 19.3799 6.53516C19.3604 7.29688 19.1846 8.00977 18.8525 8.67383C18.5791 9.24023 18.1201 9.82617 17.4756 10.4316C16.8311 11.0176 15.9033 11.4668 14.6924 11.7793C15.2979 11.8574 15.8154 11.9941 16.2451 12.1895C16.6943 12.3652 17.0752 12.5801 17.3877 12.834C17.7197 13.0684 17.9834 13.332 18.1787 13.625C18.3936 13.918 18.5596 14.2109 18.6768 14.5039C18.9697 15.1875 19.1064 15.9492 19.0869 16.7891C18.9697 17.8828 18.7451 18.752 18.4131 19.3965C18.1006 20.041 17.7393 20.5391 17.3291 20.8906C16.9189 21.2422 16.499 21.4863 16.0693 21.623C15.6396 21.7598 15.249 21.8672 14.8975 21.9453C14.5459 22.0234 14.1162 22.0625 13.6084 22.0625C13.1006 22.0625 12.5537 22.0527 11.9678 22.0332C11.4014 21.9941 10.8154 21.9648 10.21 21.9453C9.60449 21.9062 9.02832 21.9062 8.48145 21.9453C8.03223 21.9844 7.48535 22.0234 6.84082 22.0625C6.29395 22.1016 5.61035 22.1504 4.79004 22.209C3.96973 22.248 3.0127 22.2969 1.91895 22.3555C2.13379 22.1992 2.30957 22.0234 2.44629 21.8281C2.60254 21.6133 2.72949 21.4277 2.82715 21.2715C2.9248 21.0762 3.0127 20.8906 3.09082 20.7148C3.14941 20.5586 3.19824 20.1289 3.2373 19.4258C3.27637 18.7227 3.30566 17.8828 3.3252 16.9062C3.34473 15.9102 3.35449 14.8457 3.35449 13.7129C3.37402 12.5605 3.36426 11.457 3.3252 10.4023C3.30566 9.32812 3.2666 8.38086 3.20801 7.56055C3.16895 6.7207 3.11035 6.11523 3.03223 5.74414C2.91504 5.33398 2.75879 4.91406 2.56348 4.48438C2.40723 4.11328 2.18262 3.71289 1.88965 3.2832C1.61621 2.85352 1.28418 2.44336 0.893555 2.05273ZM7.0752 5.04102C7.0752 5.11914 7.08496 5.38281 7.10449 5.83203C7.12402 6.22266 7.14355 6.82812 7.16309 7.64844C7.20215 8.44922 7.25098 9.5918 7.30957 11.0762C7.79785 11.291 8.27637 11.4082 8.74512 11.4277C9.21387 11.4277 9.63379 11.4082 10.0049 11.3691C10.4346 11.3105 10.8447 11.2129 11.2354 11.0762C11.7627 10.8613 12.1729 10.5098 12.4658 10.0215C12.7783 9.5332 12.9834 9.02539 13.0811 8.49805C13.1982 7.95117 13.2275 7.44336 13.1689 6.97461C13.1104 6.48633 12.9834 6.13477 12.7881 5.91992C12.417 5.58789 11.958 5.31445 11.4111 5.09961C10.9424 4.92383 10.3467 4.80664 9.62402 4.74805C8.9209 4.66992 8.07129 4.76758 7.0752 5.04102ZM6.92871 18.9277C7.65137 19.2988 8.28613 19.543 8.83301 19.6602C9.37988 19.7773 9.83887 19.8359 10.21 19.8359C10.6396 19.8359 11.0107 19.7773 11.3232 19.6602C11.6943 19.4844 12.0557 19.25 12.4072 18.957C12.7783 18.6445 13.0518 18.2832 13.2275 17.873C13.4229 17.4434 13.501 16.9746 13.4619 16.4668C13.4229 15.9395 13.1982 15.3633 12.7881 14.7383C12.417 14.2891 11.9678 13.9375 11.4404 13.6836C10.9717 13.4688 10.376 13.332 9.65332 13.2734C8.9502 13.2148 8.08105 13.3809 7.0459 13.7715L6.92871 18.9277ZM28.3447 18.2832C28.8916 18.2832 29.3994 18.2246 29.8682 18.1074C30.2588 18.0098 30.6299 17.8535 30.9814 17.6387C31.3525 17.4043 31.5967 17.0625 31.7139 16.6133C32.1045 16.6914 32.4365 16.7598 32.71 16.8184C32.9834 16.8574 33.2178 16.8965 33.4131 16.9355C33.6279 16.9941 33.8135 17.0332 33.9697 17.0527C34.126 17.0918 34.3115 17.1309 34.5264 17.1699C34.7217 17.209 34.9561 17.2578 35.2295 17.3164C35.5225 17.3555 35.8643 17.4141 36.2549 17.4922C35.9619 17.4531 35.6592 17.4824 35.3467 17.5801C35.0537 17.6777 34.7705 17.7852 34.4971 17.9023C34.1846 18.0391 33.8916 18.2051 33.6182 18.4004C33.4424 18.5176 33.2373 18.6934 33.0029 18.9277C32.7881 19.1621 32.4756 19.3867 32.0654 19.6016C31.6553 19.8164 31.1084 20.002 30.4248 20.1582C29.7607 20.2949 28.9014 20.3438 27.8467 20.3047C26.5771 20.2656 25.5127 20.041 24.6533 19.6309C23.7939 19.2012 23.1006 18.6836 22.5732 18.0781C22.0459 17.4531 21.665 16.7793 21.4307 16.0566C21.1963 15.334 21.0693 14.6602 21.0498 14.0352C21.0303 13.4102 21.2158 12.7559 21.6064 12.0723C21.9971 11.3887 22.5439 10.7637 23.2471 10.1973C23.9697 9.63086 24.8389 9.17188 25.8545 8.82031C26.8701 8.44922 27.9834 8.26367 29.1943 8.26367C29.8975 8.26367 30.542 8.35156 31.1279 8.52734C31.7334 8.68359 32.2803 8.89844 32.7686 9.17188C33.2764 9.44531 33.7158 9.75781 34.0869 10.1094C34.458 10.4414 34.7705 10.7832 35.0244 11.1348C35.2783 11.5059 35.4932 11.8965 35.6689 12.3066C35.8252 12.6582 35.9521 13.0586 36.0498 13.5078C36.1475 13.957 36.1768 14.416 36.1377 14.8848C34.6533 14.9238 33.4521 14.9531 32.5342 14.9727C31.6357 14.9922 30.9326 15.002 30.4248 15.002H29.1064H28.1104C27.7588 15.002 27.2998 15.0117 26.7334 15.0312C26.167 15.0508 25.4736 15.0801 24.6533 15.1191C24.751 15.9004 24.9951 16.5059 25.3857 16.9355C25.7959 17.3457 26.2256 17.6582 26.6748 17.873C27.1826 18.1074 27.7393 18.2441 28.3447 18.2832ZM25.708 13.0098C26.333 13.0488 26.8506 13.0781 27.2607 13.0977C27.6904 13.1172 28.042 13.1367 28.3154 13.1562C28.6084 13.1758 28.8428 13.1855 29.0186 13.1855H29.751C30.2393 13.1855 31.1475 13.1562 32.4756 13.0977C32.417 12.2383 32.2314 11.584 31.9189 11.1348C31.626 10.6855 31.3135 10.3535 30.9814 10.1387C30.5908 9.9043 30.1611 9.76758 29.6924 9.72852C28.4229 9.74805 27.4756 10.0117 26.8506 10.5195C26.2451 11.0273 25.8643 11.8574 25.708 13.0098ZM37.9834 23.8203C38.1787 23.5273 38.335 23.2539 38.4521 23C38.5693 22.7461 38.667 22.5312 38.7451 22.3555C38.8232 22.1406 38.8818 21.9453 38.9209 21.7695C38.9404 21.6523 38.9502 21.3105 38.9502 20.7441C38.9502 20.1777 38.9307 19.4648 38.8916 18.6055C38.8721 17.7461 38.8428 16.7793 38.8037 15.7051C38.7842 14.6309 38.7451 13.5371 38.6865 12.4238C38.6475 11.3105 38.5986 10.2266 38.54 9.17188C38.501 8.11719 38.4619 7.16992 38.4229 6.33008C38.3838 5.4707 38.3447 4.76758 38.3057 4.2207C38.2666 3.67383 38.2373 3.36133 38.2178 3.2832C38.1787 3.16602 38.1104 3.04883 38.0127 2.93164C37.8174 2.69727 37.4854 2.47266 37.0166 2.25781C38.0127 2.00391 38.7744 1.79883 39.3018 1.64258C39.6143 1.56445 39.8877 1.48633 40.1221 1.4082C40.3369 1.33008 40.5518 1.25195 40.7666 1.17383C40.9424 1.0957 41.1377 1.00781 41.3525 0.910156C41.5674 0.792969 41.7627 0.666016 41.9385 0.529297C41.8408 1.0957 41.7627 1.64258 41.7041 2.16992C41.6455 2.69727 41.5967 3.18555 41.5576 3.63477C41.5186 4.14258 41.499 4.63086 41.499 5.09961C41.4014 6.05664 41.3428 7.10156 41.3232 8.23438C41.3232 9.34766 41.333 10.4805 41.3525 11.6328C41.3721 12.7852 41.4111 13.9082 41.4697 15.002C41.5283 16.0957 41.5869 17.0918 41.6455 17.9902C41.7236 18.8691 41.792 19.6211 41.8506 20.2461C41.9287 20.8516 41.9873 21.2422 42.0264 21.418C42.1045 21.7109 42.1826 21.9941 42.2607 22.2676C42.3389 22.502 42.4268 22.7461 42.5244 23C42.6221 23.2734 42.7393 23.4883 42.876 23.6445H40.0342C39.7803 23.6445 39.5361 23.6543 39.3018 23.6738C39.0869 23.6934 38.8623 23.7129 38.6279 23.7324C38.3936 23.752 38.1787 23.7812 37.9834 23.8203ZM51.7822 9.875C52.29 9.875 52.8174 9.97266 53.3643 10.168C53.9111 10.3438 54.4385 10.5781 54.9463 10.8711C55.4541 11.1445 55.9131 11.4473 56.3232 11.7793C56.7529 12.0918 57.1045 12.3945 57.3779 12.6875C57.8662 13.2148 58.1982 13.9277 58.374 14.8262C58.5693 15.7051 58.6084 16.6133 58.4912 17.5508C58.374 18.4688 58.1006 19.3379 57.6709 20.1582C57.2412 20.9785 56.6455 21.584 55.8838 21.9746C55.3369 22.248 54.7998 22.4629 54.2725 22.6191C53.7451 22.7754 53.2373 22.8926 52.749 22.9707C52.2607 23.0488 51.8018 23.0879 51.3721 23.0879C50.9424 23.0879 50.5713 23.0781 50.2588 23.0586C49.6729 23.0195 49.0576 22.8145 48.4131 22.4434C47.7881 22.0723 47.1924 21.6133 46.626 21.0664C46.0791 20.5195 45.6104 19.9238 45.2197 19.2793C44.8291 18.6152 44.5947 17.9902 44.5166 17.4043C44.3994 16.6035 44.3799 15.7637 44.458 14.8848C44.5361 14.0059 44.8193 13.1953 45.3076 12.4531C45.8154 11.7109 46.5771 11.0957 47.5928 10.6074C48.6279 10.1191 50.0244 9.875 51.7822 9.875ZM50.8154 21.2422C51.0303 21.2812 51.3232 21.2324 51.6943 21.0957C52.0654 20.9395 52.4268 20.6953 52.7783 20.3633C53.1494 20.0312 53.4717 19.6113 53.7451 19.1035C54.0381 18.5762 54.2139 17.9414 54.2725 17.1992C54.3311 16.4766 54.3311 15.8125 54.2725 15.207C54.2334 14.6016 54.1455 14.0742 54.0088 13.625C53.8721 13.1562 53.7158 12.7754 53.54 12.4824C53.3643 12.1895 53.1787 11.9844 52.9834 11.8672C52.6514 11.6914 52.251 11.5547 51.7822 11.457C51.3135 11.3398 50.9131 11.3594 50.5811 11.5156C50.4248 11.5938 50.2295 11.7598 49.9951 12.0137C49.7607 12.2676 49.5264 12.5898 49.292 12.9805C49.0576 13.3516 48.8428 13.7812 48.6475 14.2695C48.4717 14.7578 48.3447 15.2656 48.2666 15.793C48.1885 16.3203 48.1689 16.8867 48.208 17.4922C48.2666 18.0977 48.3936 18.6738 48.5889 19.2207C48.7842 19.748 49.0576 20.207 49.4092 20.5977C49.7803 20.9688 50.249 21.1836 50.8154 21.2422ZM57.0557 6.85742C57.3877 6.91602 57.7295 6.96484 58.0811 7.00391C58.4131 7.02344 58.7158 7.04297 58.9893 7.0625C59.3018 7.08203 59.6045 7.0918 59.8975 7.0918C60.1904 7.0918 60.5225 7.08203 60.8936 7.0625C61.2061 7.04297 61.5771 7.01367 62.0068 6.97461C62.4561 6.93555 62.9443 6.87695 63.4717 6.79883C63.1592 6.97461 62.915 7.16016 62.7393 7.35547C62.5635 7.55078 62.4268 7.72656 62.3291 7.88281C62.2119 8.07812 62.1338 8.25391 62.0947 8.41016C62.0557 8.56641 62.0654 8.88867 62.124 9.37695C62.1826 9.86523 62.2607 10.4316 62.3584 11.0762C62.4756 11.7207 62.6025 12.3945 62.7393 13.0977C62.876 13.8008 63.0127 14.4453 63.1494 15.0312C63.3057 15.6172 63.4424 16.1055 63.5596 16.4961C63.6963 16.8867 63.8037 17.0723 63.8818 17.0527C63.96 17.0527 64.0771 16.8574 64.2334 16.4668C64.4092 16.0762 64.6045 15.5977 64.8193 15.0312C65.0342 14.4453 65.2588 13.8105 65.4932 13.127C65.7275 12.4238 65.9326 11.7695 66.1084 11.1641C66.2842 10.5586 66.4209 10.0508 66.5186 9.64062C66.6357 9.21094 66.6846 8.95703 66.665 8.87891C66.6064 8.80078 66.5381 8.69336 66.46 8.55664C66.3232 8.3418 66.0205 7.9707 65.5518 7.44336C66.1182 7.48242 66.6064 7.52148 67.0166 7.56055C67.4268 7.58008 67.7588 7.60937 68.0127 7.64844C68.3057 7.6875 68.54 7.7168 68.7158 7.73633C68.8916 7.75586 69.1455 7.75586 69.4775 7.73633C69.751 7.73633 70.1123 7.72656 70.5615 7.70703C71.0303 7.66797 71.6064 7.60937 72.29 7.53125C71.7822 7.82422 71.3623 8.08789 71.0303 8.32227C70.7178 8.53711 70.4736 8.72266 70.2979 8.87891C70.083 9.07422 69.9268 9.24023 69.8291 9.37695C69.6924 9.63086 69.4482 10.2363 69.0967 11.1934C68.9404 11.6035 68.7451 12.1113 68.5107 12.7168C68.2959 13.3223 68.0322 14.0547 67.7197 14.9141C67.4268 15.7539 67.0752 16.7402 66.665 17.873C66.2549 19.0059 65.7959 20.3047 65.2881 21.7695L62.4463 22.0625C62.0752 20.832 61.7725 19.8066 61.5381 18.9863C61.3232 18.1465 61.1475 17.4727 61.0107 16.9648C60.8545 16.3789 60.7373 15.9199 60.6592 15.5879C60.5615 15.2168 60.4443 14.6797 60.3076 13.9766C60.1709 13.2539 60.0342 12.5215 59.8975 11.7793C59.7607 11.0371 59.624 10.373 59.4873 9.78711C59.3506 9.18164 59.2432 8.81055 59.165 8.67383C59.0869 8.57617 58.9502 8.43945 58.7549 8.26367C58.5986 8.10742 58.3838 7.92188 58.1104 7.70703C57.8369 7.47266 57.4854 7.18945 57.0557 6.85742ZM78.4131 18.2832C78.96 18.2832 79.4678 18.2246 79.9365 18.1074C80.3271 18.0098 80.6982 17.8535 81.0498 17.6387C81.4209 17.4043 81.665 17.0625 81.7822 16.6133C82.1729 16.6914 82.5049 16.7598 82.7783 16.8184C83.0518 16.8574 83.2861 16.8965 83.4814 16.9355C83.6963 16.9941 83.8818 17.0332 84.0381 17.0527C84.1943 17.0918 84.3799 17.1309 84.5947 17.1699C84.79 17.209 85.0244 17.2578 85.2979 17.3164C85.5908 17.3555 85.9326 17.4141 86.3232 17.4922C86.0303 17.4531 85.7275 17.4824 85.415 17.5801C85.1221 17.6777 84.8389 17.7852 84.5654 17.9023C84.2529 18.0391 83.96 18.2051 83.6865 18.4004C83.5107 18.5176 83.3057 18.6934 83.0713 18.9277C82.8564 19.1621 82.5439 19.3867 82.1338 19.6016C81.7236 19.8164 81.1768 20.002 80.4932 20.1582C79.8291 20.2949 78.9697 20.3438 77.915 20.3047C76.6455 20.2656 75.5811 20.041 74.7217 19.6309C73.8623 19.2012 73.1689 18.6836 72.6416 18.0781C72.1143 17.4531 71.7334 16.7793 71.499 16.0566C71.2646 15.334 71.1377 14.6602 71.1182 14.0352C71.0986 13.4102 71.2842 12.7559 71.6748 12.0723C72.0654 11.3887 72.6123 10.7637 73.3154 10.1973C74.0381 9.63086 74.9072 9.17188 75.9229 8.82031C76.9385 8.44922 78.0518 8.26367 79.2627 8.26367C79.9658 8.26367 80.6104 8.35156 81.1963 8.52734C81.8018 8.68359 82.3486 8.89844 82.8369 9.17188C83.3447 9.44531 83.7842 9.75781 84.1553 10.1094C84.5264 10.4414 84.8389 10.7832 85.0928 11.1348C85.3467 11.5059 85.5615 11.8965 85.7373 12.3066C85.8936 12.6582 86.0205 13.0586 86.1182 13.5078C86.2158 13.957 86.2451 14.416 86.2061 14.8848C84.7217 14.9238 83.5205 14.9531 82.6025 14.9727C81.7041 14.9922 81.001 15.002 80.4932 15.002H79.1748H78.1787C77.8271 15.002 77.3682 15.0117 76.8018 15.0312C76.2354 15.0508 75.542 15.0801 74.7217 15.1191C74.8193 15.9004 75.0635 16.5059 75.4541 16.9355C75.8643 17.3457 76.2939 17.6582 76.7432 17.873C77.251 18.1074 77.8076 18.2441 78.4131 18.2832ZM75.7764 13.0098C76.4014 13.0488 76.9189 13.0781 77.3291 13.0977C77.7588 13.1172 78.1104 13.1367 78.3838 13.1562C78.6768 13.1758 78.9111 13.1855 79.0869 13.1855H79.8193C80.3076 13.1855 81.2158 13.1562 82.5439 13.0977C82.4854 12.2383 82.2998 11.584 81.9873 11.1348C81.6943 10.6855 81.3818 10.3535 81.0498 10.1387C80.6592 9.9043 80.2295 9.76758 79.7607 9.72852C78.4912 9.74805 77.5439 10.0117 76.9189 10.5195C76.3135 11.0273 75.9326 11.8574 75.7764 13.0098ZM101.763 0.558594C102.134 0.578125 102.534 0.587891 102.964 0.587891C103.335 0.587891 103.755 0.597656 104.224 0.617188C104.712 0.617188 105.22 0.597656 105.747 0.558594C105.278 0.773438 104.868 1.08594 104.517 1.49609C104.165 1.90625 103.882 2.31641 103.667 2.72656C103.394 3.21484 103.169 3.72266 102.993 4.25C102.896 4.5625 102.817 5.11914 102.759 5.91992C102.7 6.70117 102.651 7.61914 102.612 8.67383C102.593 9.72852 102.583 10.8418 102.583 12.0137C102.583 13.1855 102.593 14.3086 102.612 15.3828C102.632 16.4375 102.661 17.375 102.7 18.1953C102.739 19.0156 102.788 19.5918 102.847 19.9238C102.925 20.3145 103.022 20.6855 103.14 21.0371C103.237 21.3496 103.364 21.6719 103.521 22.0039C103.677 22.3164 103.872 22.5703 104.106 22.7656L101.118 24.1133C100.962 23.8984 100.835 23.6738 100.737 23.4395C100.64 23.2246 100.562 23.0293 100.503 22.8535C100.425 22.6387 100.376 22.4434 100.356 22.2676C100.317 22.0332 100.278 21.7793 100.239 21.5059C100.2 21.2129 100.151 20.9395 100.093 20.6855C100.054 20.4121 100.024 20.1875 100.005 20.0117C99.9854 19.8359 99.9854 19.7285 100.005 19.6895C100.024 19.6504 99.9072 19.8262 99.6533 20.2168C99.3994 20.5879 99.0186 21.0273 98.5107 21.5352C98.0225 22.0234 97.417 22.502 96.6943 22.9707C95.9717 23.4199 95.1611 23.7031 94.2627 23.8203C93.3447 23.9375 92.4951 23.7617 91.7139 23.293C90.9521 22.8242 90.2979 22.1699 89.751 21.3301C89.2041 20.4707 88.7842 19.4844 88.4912 18.3711C88.2178 17.2383 88.1104 16.0859 88.1689 14.9141C88.208 14.1328 88.3838 13.4395 88.6963 12.834C89.0088 12.209 89.3994 11.6719 89.8682 11.2227C90.3564 10.7539 90.8838 10.3633 91.4502 10.0508C92.0361 9.71875 92.6025 9.44531 93.1494 9.23047C93.7158 9.01562 94.2432 8.85938 94.7314 8.76172C95.2197 8.66406 95.6104 8.5957 95.9033 8.55664C96.2549 8.53711 96.6553 8.5957 97.1045 8.73242C97.4951 8.84961 97.9443 9.04492 98.4521 9.31836C98.9795 9.5918 99.5654 10.002 100.21 10.5488C100.093 8.5957 99.9854 7.0332 99.8877 5.86133C99.79 4.66992 99.6924 3.76172 99.5947 3.13672C99.4971 2.39453 99.4092 1.88672 99.3311 1.61328C99.2334 1.41797 99.1064 1.22266 98.9502 1.02734C98.8135 0.871094 98.6377 0.714844 98.4229 0.558594C98.2275 0.382812 97.9932 0.246094 97.7197 0.148438C98.2275 0.246094 98.7158 0.314453 99.1846 0.353516C99.6533 0.392578 100.083 0.431641 100.474 0.470703C100.923 0.509766 101.353 0.539063 101.763 0.558594ZM94.4092 11.4863C94.0381 11.623 93.7354 11.8574 93.501 12.1895C93.2861 12.5215 93.1104 12.9219 92.9736 13.3906C92.8369 13.8398 92.7393 14.3281 92.6807 14.8555C92.6416 15.3633 92.6123 15.8613 92.5928 16.3496C92.5928 16.8184 92.5928 17.248 92.5928 17.6387C92.5928 18.0293 92.5928 18.3223 92.5928 18.5176C92.5928 18.6348 92.6123 18.8496 92.6514 19.1621C92.71 19.4551 92.8271 19.7676 93.0029 20.0996C93.1787 20.4121 93.4229 20.6953 93.7354 20.9492C94.0674 21.2031 94.5068 21.3301 95.0537 21.3301C95.5029 21.291 95.9814 21.1348 96.4893 20.8613C96.9385 20.627 97.4463 20.2559 98.0127 19.748C98.5986 19.2207 99.2236 18.4688 99.8877 17.4922C99.8486 16.8672 99.8193 16.3496 99.7998 15.9395C99.7998 15.5293 99.79 15.1973 99.7705 14.9434C99.751 14.6504 99.7412 14.416 99.7412 14.2402V13.8008C99.7412 13.6836 99.7412 13.5566 99.7412 13.4199C99.7412 13.2832 99.751 13.1562 99.7705 13.0391C99.2236 12.6484 98.7354 12.3164 98.3057 12.043C97.8955 11.75 97.4854 11.5352 97.0752 11.3984C96.6846 11.2422 96.2744 11.1738 95.8447 11.1934C95.4346 11.1934 94.9561 11.291 94.4092 11.4863ZM118.052 6.27148C117.876 6.70117 117.72 7.0918 117.583 7.44336C117.466 7.79492 117.358 8.10742 117.261 8.38086C117.163 8.69336 117.075 8.9668 116.997 9.20117C116.919 9.47461 116.831 9.78711 116.733 10.1387C116.636 10.4512 116.509 10.8418 116.353 11.3105C116.216 11.7598 116.05 12.2969 115.854 12.9219C115.698 11.9844 115.415 11.2422 115.005 10.6953C114.595 10.1289 114.175 9.68945 113.745 9.37695C113.237 9.02539 112.69 8.77148 112.104 8.61523C111.05 8.43945 110.288 8.45898 109.819 8.67383C109.351 8.88867 109.038 9.16211 108.882 9.49414C108.804 9.63086 108.716 9.80664 108.618 10.0215C108.54 10.2168 108.472 10.4219 108.413 10.6367C108.374 10.8516 108.364 11.0664 108.384 11.2812C108.403 11.4961 108.491 11.6719 108.647 11.8086C108.745 11.9062 108.999 12.043 109.409 12.2188C109.819 12.375 110.308 12.5605 110.874 12.7754C111.46 12.9707 112.075 13.1855 112.72 13.4199C113.384 13.6543 114.009 13.8887 114.595 14.123C115.181 14.3574 115.688 14.5918 116.118 14.8262C116.548 15.0605 116.831 15.2754 116.968 15.4707C117.085 15.666 117.212 15.9297 117.349 16.2617C117.505 16.5742 117.612 16.9258 117.671 17.3164C117.749 17.6875 117.769 18.0781 117.729 18.4883C117.71 18.8789 117.603 19.2695 117.407 19.6602C117.212 20.0508 116.899 20.4121 116.47 20.7441C116.06 21.0762 115.503 21.3496 114.8 21.5645C113.979 21.8184 113.188 21.8867 112.427 21.7695C111.665 21.6523 110.962 21.4766 110.317 21.2422C109.692 21.0078 109.146 20.7832 108.677 20.5684C108.208 20.334 107.876 20.2363 107.681 20.2754C107.466 20.3145 107.222 20.4219 106.948 20.5977C106.675 20.7734 106.411 20.959 106.157 21.1543C105.923 21.3301 105.718 21.4961 105.542 21.6523C105.366 21.7891 105.278 21.8379 105.278 21.7988C105.278 21.7598 105.308 21.6426 105.366 21.4473C105.444 21.252 105.522 21.0176 105.601 20.7441C105.698 20.4512 105.786 20.1387 105.864 19.8066C105.962 19.4551 106.03 19.123 106.069 18.8105C106.108 18.5566 106.157 18.2441 106.216 17.873C106.255 17.541 106.304 17.1406 106.362 16.6719C106.44 16.1836 106.528 15.5977 106.626 14.9141C106.724 15.4219 106.86 15.8613 107.036 16.2324C107.231 16.6035 107.417 16.9258 107.593 17.1992C107.808 17.5117 108.013 17.7754 108.208 17.9902C108.501 18.2637 108.843 18.5176 109.233 18.752C109.644 18.9863 110.054 19.1914 110.464 19.3672C110.874 19.5234 111.265 19.6211 111.636 19.6602C112.007 19.6992 112.319 19.6602 112.573 19.543C112.827 19.4258 113.042 19.2109 113.218 18.8984C113.413 18.5859 113.55 18.2441 113.628 17.873C113.706 17.502 113.735 17.1504 113.716 16.8184C113.696 16.4668 113.608 16.1836 113.452 15.9688C113.335 15.832 113.062 15.6562 112.632 15.4414C112.222 15.2266 111.724 14.9922 111.138 14.7383C110.571 14.4844 109.966 14.2207 109.321 13.9473C108.696 13.6738 108.101 13.4004 107.534 13.127C106.987 12.834 106.528 12.5605 106.157 12.3066C105.806 12.0332 105.61 11.7891 105.571 11.5742C105.532 11.2617 105.503 10.9199 105.483 10.5488C105.464 10.1582 105.483 9.77734 105.542 9.40625C105.62 9.01562 105.757 8.64453 105.952 8.29297C106.167 7.94141 106.479 7.64844 106.89 7.41406C107.163 7.25781 107.524 7.14062 107.974 7.0625C108.423 6.98438 108.921 6.94531 109.468 6.94531C110.015 6.92578 110.581 6.94531 111.167 7.00391C111.753 7.04297 112.31 7.10156 112.837 7.17969C113.384 7.23828 113.872 7.31641 114.302 7.41406C114.751 7.51172 115.093 7.59961 115.327 7.67773C115.601 7.77539 115.894 7.78516 116.206 7.70703C116.479 7.64844 116.772 7.52148 117.085 7.32617C117.397 7.13086 117.72 6.7793 118.052 6.27148Z" fill="#580EF6"/>
</svg>
